<?xml version="1.0" encoding="utf-8"?>
<!-- Generator: Adobe Illustrator 18.1.1, SVG Export Plug-In . SVG Version: 6.00 Build 0)  -->
<!DOCTYPE svg PUBLIC "-//W3C//DTD SVG 1.1//EN" "http://www.w3.org/Graphics/SVG/1.1/DTD/svg11.dtd">
<svg version="1.1" id="b2b_comment_icon" xmlns="http://www.w3.org/2000/svg" xmlns:xlink="http://www.w3.org/1999/xlink" x="0px" y="0px"
	 viewBox="0 0 612 792" enable-background="new 0 0 612 792" xml:space="preserve">
<path fill="#010101" d="M57.2,0h497.6C586.1,0,612,25.9,612,57.2v497.6c0,31.3-24.8,55-56.1,56.1H329.2l-158.7,109v-109H57.2
	C25.9,610.9,0,585,0,553.7V56.1C1.1,25.9,27,0,57.2,0L57.2,0z M149,192.1h316.3c13,0,22.7-9.7,22.7-22.7c0-13-9.7-22.7-22.7-22.7
	H149c-13,0-22.7,9.7-22.7,22.7C126.3,182.4,136,192.1,149,192.1L149,192.1z M149,463h225.6c13,0,22.7-9.7,22.7-22.7
	s-9.7-22.7-22.7-22.7H149c-13,0-22.7,9.7-22.7,22.7S136,463,149,463L149,463z M149,328.1h316.3c13,0,22.7-9.7,22.7-22.7
	s-9.7-22.7-22.7-22.7H149c-13,0-22.7,9.7-22.7,22.7S136,328.1,149,328.1z"/>
</svg>
