<?xml version="1.0" encoding="utf-8"?>
<!-- Generator: Adobe Illustrator 18.1.1, SVG Export Plug-In . SVG Version: 6.00 Build 0)  -->
<!DOCTYPE svg PUBLIC "-//W3C//DTD SVG 1.1//EN" "http://www.w3.org/Graphics/SVG/1.1/DTD/svg11.dtd">
<svg version="1.1" id="Layer_1" xmlns="http://www.w3.org/2000/svg" xmlns:xlink="http://www.w3.org/1999/xlink" x="0px" y="0px"
	 viewBox="0 0 612 792" enable-background="new 0 0 612 792" xml:space="preserve">
<path fill="#010101" d="M159.6,732.2V612H73.7C33.3,612,0,578.7,0,538.3V72.7C0,32.3,33.3,0,73.7,0h465.6C579.7,0,612,33.3,612,72.7
	v465.6c0,39.4-31.3,71.7-71.7,72.7h-207L159.6,732.2z M73.7,40.4c-18.2,0-33.3,15.1-33.3,32.3v465.6c0,18.2,15.1,33.3,33.3,33.3H200
	v83.8l121.2-83.8h219.1c17.2-1,32.3-15.1,32.3-32.3V73.7c0-18.2-15.1-32.3-32.3-32.3L73.7,40.4z"/>
</svg>
